<svg width="156" height="157" viewBox="0 0 156 157" fill="none" xmlns="http://www.w3.org/2000/svg">
<path d="M0.993569 96.2192C0.928176 96.7751 1.32576 97.2787 1.8816 97.344C2.43743 97.4094 2.94104 97.0119 3.00643 96.456L0.993569 96.2192ZM50.8196 34.278L51.1901 35.2212L50.8196 34.278ZM74.928 37.8943L74.6401 36.9226L74.928 37.8943ZM103.255 2.33405L103.04 1.34381L103.255 2.33405ZM133.328 20.2158C133.886 20.2507 134.367 19.8262 134.402 19.2676C134.437 18.709 134.013 18.2279 133.454 18.193L133.328 20.2158ZM3.00643 96.456C3.58657 91.5248 5.75871 87.1056 8.62039 84.5929C10.0426 83.3441 11.6034 82.5914 13.2054 82.4287C14.7945 82.2674 16.5159 82.6767 18.2991 83.9112L19.4527 82.2448C17.3183 80.7671 15.122 80.197 13.0007 80.4123C10.8923 80.6264 8.94981 81.6065 7.28315 83.0699C3.96705 85.9816 1.61885 90.9043 0.993569 96.2192L3.00643 96.456ZM18.2991 83.9112C22.193 86.6069 25.1847 88.5143 27.8487 89.3215C29.209 89.7337 30.5105 89.8695 31.8232 89.6742C33.132 89.4795 34.3931 88.9645 35.6862 88.1563L34.612 86.4376C33.4943 87.1362 32.4952 87.5252 31.525 87.6695C30.5587 87.8133 29.5624 87.7231 28.4365 87.3819C26.1281 86.6824 23.3941 84.9734 19.4527 82.2448L18.2991 83.9112ZM35.6862 88.1563C37.1481 87.2426 38.1421 85.7293 38.8433 83.9279C39.546 82.1229 39.9922 79.9326 40.298 77.5303C40.9071 72.7452 40.986 66.84 41.2842 61.0657C41.5854 55.2327 42.1098 49.4913 43.5747 44.8145C45.0378 40.1435 47.3785 36.7186 51.1901 35.2212L50.449 33.3348C45.8227 35.1523 43.191 39.2589 41.6406 44.2087C40.092 49.1527 39.5616 55.1216 39.2601 60.9612C38.9556 66.8596 38.8838 72.5893 38.2875 77.2744C37.9905 79.6072 37.5704 81.6108 36.9546 83.1927C36.3374 84.7781 35.5609 85.8445 34.612 86.4376L35.6862 88.1563ZM51.1901 35.2212C54.8946 33.7658 58.7949 35.0164 62.9559 36.6034C64.9788 37.3749 67.0739 38.2259 69.0943 38.7382C71.1268 39.2536 73.2051 39.4617 75.2159 38.8659L74.6401 36.9226C73.124 37.3719 71.4548 37.2459 69.5925 36.7737C67.7182 36.2984 65.7712 35.508 63.6782 34.7097C59.6075 33.1572 54.9805 31.5546 50.449 33.3348L51.1901 35.2212ZM75.2159 38.8659C79.5676 37.5765 82.6769 34.7582 85.0992 31.3102C87.5071 27.8828 89.278 23.7712 90.9304 19.8278C92.6024 15.8379 94.1458 12.0418 96.1166 9.03989C98.0724 6.06092 100.364 3.9998 103.471 3.32429L103.04 1.34381C99.216 2.1752 96.5349 4.70985 94.4224 7.92757C92.3249 11.1224 90.7041 15.1239 89.0612 19.0445C87.3987 23.0118 85.7039 26.9238 83.4408 30.1451C81.1922 33.3458 78.425 35.8012 74.6401 36.9226L75.2159 38.8659ZM103.471 3.32429C109.946 1.91641 113.954 5.50332 118.14 10.0089C120.192 12.2185 122.309 14.6731 124.697 16.5921C127.114 18.5343 129.89 20.0009 133.328 20.2158L133.454 18.193C130.564 18.0124 128.177 16.7881 125.967 15.0123C123.728 13.2134 121.755 10.9231 119.624 8.62951C115.443 4.12877 110.712 -0.32401 103.04 1.34381L103.471 3.32429Z" fill="url(#paint0_linear)"/>
<path d="M154.466 88.6211C153.646 87.1832 152.248 85.8325 150.27 84.694C143.512 80.8038 132.453 80.8038 125.694 84.694C123.716 85.8325 122.318 87.1832 121.498 88.6211H120.625V91.7669C120.625 94.3312 122.315 96.895 125.694 98.8398C132.453 102.73 143.512 102.73 150.27 98.8398C153.649 96.895 155.339 94.3312 155.339 91.7669V88.6211H154.466Z" fill="#EAEDFF"/>
<path d="M137.976 98.8592C147.574 98.8592 155.354 94.3808 155.354 88.8564C155.354 83.3319 147.574 78.8535 137.976 78.8535C128.378 78.8535 120.598 83.3319 120.598 88.8564C120.598 94.3808 128.378 98.8592 137.976 98.8592Z" fill="#F8F9FF"/>
<path d="M123.126 106.698C122.306 105.26 120.908 103.91 118.93 102.771C112.172 98.881 101.113 98.881 94.3541 102.771C92.3763 103.91 90.978 105.26 90.1581 106.698H89.2852V109.844C89.2852 112.408 90.9748 114.972 94.3541 116.917C101.113 120.807 112.172 120.807 118.93 116.917C122.309 114.972 123.999 112.408 123.999 109.844V106.698H123.126Z" fill="#EAEDFF"/>
<path d="M106.632 116.938C116.23 116.938 124.011 112.46 124.011 106.935C124.011 101.411 116.23 96.9326 106.632 96.9326C97.0345 96.9326 89.2539 101.411 89.2539 106.935C89.2539 112.46 97.0345 116.938 106.632 116.938Z" fill="#F8F9FF"/>
<path d="M90.5796 124.78C89.7592 123.342 88.3614 121.992 86.3836 120.853C79.625 116.963 68.5658 116.963 61.8072 120.853C59.8294 121.992 58.4311 123.342 57.6112 124.78H56.7383V127.926C56.7383 130.49 58.4279 133.054 61.8072 134.999C68.5658 138.889 79.625 138.889 86.3836 134.999C89.7624 133.054 91.452 130.49 91.452 127.926V124.78H90.5796Z" fill="#EAEDFF"/>
<path d="M74.0854 135.02C83.6832 135.02 91.4638 130.542 91.4638 125.017C91.4638 119.493 83.6832 115.015 74.0854 115.015C64.4876 115.015 56.707 119.493 56.707 125.017C56.707 130.542 64.4876 135.02 74.0854 135.02Z" fill="#F8F9FF"/>
<path d="M59.2359 142.865C58.4155 141.427 57.0177 140.077 55.0399 138.938C48.2813 135.048 37.2221 135.048 30.4635 138.938C28.4857 140.077 27.0874 141.427 26.2675 142.865H25.3945V146.011C25.3945 148.575 27.0842 151.139 30.4635 153.084C37.2221 156.974 48.2813 156.974 55.0399 153.084C58.4186 151.139 60.1083 148.575 60.1083 146.011V142.865H59.2359Z" fill="#EAEDFF"/>
<path d="M42.7456 153.103C52.3434 153.103 60.1239 148.625 60.1239 143.101C60.1239 137.576 52.3434 133.098 42.7456 133.098C33.1477 133.098 25.3672 137.576 25.3672 143.101C25.3672 148.625 33.1477 153.103 42.7456 153.103Z" fill="#F8F9FF"/>
<path d="M120.5 58.3611V86.8573C120.5 89.3525 122.139 91.8356 125.418 93.7402C132.012 97.5734 142.728 97.5734 149.37 93.7402C152.709 91.8115 154.372 89.2801 154.372 86.7608V58.2646C154.372 60.784 152.709 63.3154 149.37 65.244C142.74 69.0773 132.012 69.0773 125.418 65.244C122.139 63.3395 120.5 60.8563 120.5 58.3611Z" fill="url(#paint1_linear)"/>
<path d="M125.498 51.37C118.856 55.2033 118.82 61.4112 125.413 65.2445C132.007 69.0777 142.735 69.0777 149.365 65.2445C155.995 61.4112 156.031 55.2033 149.45 51.37C142.868 47.5368 132.128 47.5368 125.498 51.37Z" fill="#E5E9FF"/>
<path d="M123.161 37.1455C123.161 39.6648 121.51 42.1962 118.171 44.1249C116.706 44.9532 115.143 45.5931 113.518 46.0295C111.32 46.6282 109.057 46.9521 106.779 46.9938C102.416 47.1675 98.0852 46.1773 94.231 44.1249C93.6802 43.8134 93.1525 43.463 92.6519 43.0762C91.3827 42.1468 90.3808 40.8995 89.7468 39.4599C89.4648 38.7538 89.3137 38.0022 89.3008 37.2419L89.4937 104.746C89.501 105.506 89.6523 106.259 89.9397 106.964C90.5707 108.405 91.5732 109.653 92.8447 110.58C93.3454 110.967 93.8731 111.317 94.4238 111.629C98.2903 113.695 102.641 114.686 107.02 114.497C109.294 114.457 111.553 114.133 113.747 113.533C115.361 113.098 116.912 112.458 118.364 111.629C121.703 109.712 123.378 107.18 123.366 104.649L123.161 37.1455Z" fill="url(#paint2_linear)"/>
<path d="M94.3115 30.2493C87.6816 34.0826 87.6455 40.3025 94.2391 44.1237C100.833 47.9449 111.549 47.957 118.191 44.1237C124.833 40.2905 124.857 34.0826 118.263 30.2493C111.67 26.4161 100.953 26.4281 94.3115 30.2493Z" fill="#E5E9FF"/>
<path d="M86.1042 80.4085C84.647 81.2167 83.0966 81.8441 81.4875 82.2769C79.2938 82.8747 77.0345 83.1986 74.7612 83.2412C70.3779 83.4233 66.0254 82.433 62.1525 80.3723C61.6015 80.0568 61.0738 79.7023 60.5734 79.3115C59.3007 78.3859 58.2978 77.1376 57.6683 75.6953C57.3851 74.9899 57.2379 74.2374 57.2344 73.4773V123.334C57.2462 124.094 57.3974 124.846 57.6804 125.552C58.3079 126.995 59.3111 128.244 60.5854 129.168C61.0859 129.559 61.6136 129.913 62.1645 130.229C66.0331 132.289 70.3818 133.28 74.7612 133.097C77.0351 133.053 79.2946 132.725 81.4875 132.121C83.1041 131.688 84.6594 131.052 86.1163 130.229C89.4553 128.3 91.1188 125.768 91.1067 123.237V73.3809C91.1067 75.9484 89.4191 78.4798 86.1042 80.4085Z" fill="url(#paint3_linear)"/>
<path d="M62.2255 66.5341C55.5957 70.3674 55.5595 76.5753 62.1532 80.4085C68.7469 84.2417 79.463 84.2417 86.1049 80.4085C92.7468 76.5753 92.7709 70.3674 86.1772 66.5341C79.5836 62.7009 68.9277 62.7009 62.2255 66.5341Z" fill="#E5E9FF"/>
<path d="M54.8503 122.768C53.3957 123.591 51.845 124.231 50.2335 124.673C48.0402 125.273 45.7807 125.597 43.5073 125.637C39.124 125.819 34.7715 124.829 30.8986 122.768C30.3512 122.447 29.8239 122.093 29.3195 121.708C28.0536 120.778 27.0556 119.531 26.4265 118.091C26.1391 117.387 25.9878 116.634 25.9805 115.873V141.404C25.9805 142.166 26.1321 142.92 26.4265 143.622C27.0491 145.065 28.0483 146.314 29.3195 147.239C29.822 147.626 30.3495 147.981 30.8986 148.299C34.7715 150.36 39.124 151.35 43.5073 151.168C45.7812 151.123 48.0406 150.795 50.2335 150.192C51.8456 149.757 53.3967 149.121 54.8503 148.299C58.1893 146.371 59.8528 143.839 59.8528 141.308V115.789C59.8649 118.308 58.1893 120.852 54.8503 122.768Z" fill="url(#paint4_linear)"/>
<path d="M30.9815 108.893C24.3397 112.726 24.3156 118.934 30.8972 122.767C37.4788 126.6 48.2191 126.6 54.8489 122.767C61.4787 118.934 61.5269 112.726 54.9333 108.893C48.3396 105.059 37.5873 105.059 30.9815 108.893Z" fill="#E5E9FF"/>
<path d="M39.499 93.1135C39.499 93.6309 39.2989 93.9127 38.9708 94.1022L38.6267 94.3008L38.6267 95.2248L38.9227 95.0539C39.3228 94.8229 39.4989 94.943 39.4988 95.5436L39.4988 96.0518C39.4987 96.6247 39.3227 96.8834 39.0426 97.0451C38.7625 97.2068 38.5865 97.1328 38.5865 96.6708L38.5866 96.0703L37.7544 96.5507L37.7543 97.0866C37.7543 98.1215 38.2023 98.4541 39.0665 97.9552C39.9308 97.4562 40.3789 96.6062 40.379 95.5713L40.379 95.0631C40.3791 94.4071 40.2031 94.0282 39.763 94.0606C40.1871 93.6125 40.3792 93.0673 40.3792 92.3743L40.3792 92.208C40.3793 91.1731 39.9313 90.8405 39.067 91.3394C38.2028 91.8384 37.7547 92.6885 37.7546 93.7233L37.7546 94.0744L38.5868 93.594L38.5868 93.1782C38.5868 92.7162 38.7629 92.439 39.043 92.2773C39.323 92.1156 39.4991 92.171 39.499 92.7531L39.499 93.1135ZM40.935 94.7144L40.935 95.2503C40.9349 96.2852 41.383 96.6178 42.2472 96.1189C43.1114 95.6199 43.5596 94.7698 43.5597 93.735L43.5598 92.2935C43.5598 91.3418 43.2318 91.0046 42.5836 91.3788C42.2315 91.5821 41.9755 91.8962 41.8154 92.2935L41.8875 90.7089L43.4159 89.8265L43.416 88.9025L41.0954 90.2423L40.9351 94.0861L41.7673 93.6056L41.7673 93.4116C41.7673 92.9496 41.9434 92.6724 42.2235 92.5107C42.5035 92.349 42.6796 92.4229 42.6795 92.8849L42.6794 94.3078C42.6794 94.7698 42.5033 95.0378 42.2233 95.1995C41.9432 95.3612 41.7672 95.2965 41.7672 94.8345L41.7672 94.2339L40.935 94.7144ZM44.6601 89.1267C44.6601 88.8402 44.7642 88.66 44.9482 88.5538C45.1242 88.4521 45.2363 88.5076 45.2362 88.794L45.2361 91.0116C45.2361 91.298 45.124 91.4828 44.948 91.5845C44.7639 91.6907 44.6599 91.6307 44.6599 91.3442L44.6601 89.1267ZM44.0998 91.6214C44.0997 92.2867 44.3958 92.4853 44.9479 92.1666C45.5001 91.8478 45.7962 91.3073 45.7962 90.642L45.7964 88.5168C45.7964 87.8516 45.5004 87.6529 44.9482 87.9717C44.3961 88.2904 44.1 88.831 44.1 89.4962L44.0998 91.6214ZM44.9478 94.4858L45.4679 94.1855L47.6769 86.4425L47.1568 86.7428L44.9478 94.4858ZM47.4366 89.889C47.4366 89.6025 47.5407 89.4223 47.7247 89.3161C47.9008 89.2144 48.0128 89.2699 48.0128 89.5563L48.0126 91.7739C48.0126 92.0603 47.9005 92.2451 47.7245 92.3468C47.5404 92.453 47.4364 92.393 47.4364 92.1065L47.4366 89.889ZM46.8763 92.3837C46.8763 93.049 47.1723 93.2476 47.7244 92.9289C48.2766 92.6101 48.5727 92.0696 48.5727 91.4043L48.5729 89.2791C48.5729 88.6139 48.2769 88.4152 47.7248 88.734C47.1726 89.0527 46.8765 89.5933 46.8765 90.2585L46.8763 92.3837Z" fill="#8A98B4"/>
<path d="M132.647 36.7726C132.647 37.2901 132.447 37.5719 132.119 37.7613L131.775 37.96L131.775 38.884L132.071 38.713C132.471 38.482 132.647 38.6021 132.647 39.2027L132.647 39.7109C132.647 40.2838 132.471 40.5425 132.191 40.7042C131.911 40.8659 131.735 40.792 131.735 40.33L131.735 39.7294L130.903 40.2099L130.903 40.7458C130.903 41.7807 131.351 42.1133 132.215 41.6143C133.079 41.1154 133.527 40.2653 133.527 39.2304L133.527 38.7222C133.527 38.0662 133.351 37.6874 132.911 37.7197C133.335 37.2716 133.528 36.7264 133.528 36.0334L133.528 35.8671C133.528 34.8322 133.08 34.4996 132.215 34.9986C131.351 35.4976 130.903 36.3476 130.903 37.3825L130.903 37.7336L131.735 37.2531L131.735 36.8373C131.735 36.3753 131.911 36.0981 132.191 35.9364C132.471 35.7747 132.647 35.8302 132.647 36.4123L132.647 36.7726ZM136.708 34.0307C136.708 32.9958 136.236 32.6771 135.372 33.176C134.508 33.675 134.036 34.5389 134.036 35.5738L134.036 36.7565C134.035 37.7082 134.364 38.0455 135.012 37.6712C135.404 37.4448 135.676 37.0845 135.828 36.6271L135.828 37.8098C135.828 38.4289 135.652 38.7061 135.34 38.8863C135.06 39.048 134.884 38.9741 134.884 38.5121L134.884 38.2811L134.051 38.7616L134.051 38.9279C134.051 39.9627 134.499 40.2954 135.364 39.7964C136.276 39.2697 136.708 38.4289 136.708 37.3386L136.708 34.0307ZM135.372 36.5393C135.092 36.701 134.916 36.6271 134.916 36.1651L134.916 35.0009C134.916 34.5389 135.092 34.271 135.372 34.1093C135.652 33.9475 135.828 34.0122 135.828 34.4742L135.828 35.6384C135.828 36.1004 135.652 36.3776 135.372 36.5393ZM137.808 32.7857C137.808 32.4992 137.912 32.319 138.097 32.2128C138.273 32.1111 138.385 32.1666 138.385 32.453L138.384 34.6706C138.384 34.957 138.272 35.1418 138.096 35.2435C137.912 35.3497 137.808 35.2897 137.808 35.0032L137.808 32.7857ZM137.248 35.2804C137.248 35.9457 137.544 36.1444 138.096 35.8256C138.648 35.5068 138.944 34.9663 138.945 34.301L138.945 32.1758C138.945 31.5105 138.649 31.3119 138.097 31.6307C137.544 31.9495 137.248 32.49 137.248 33.1553L137.248 35.2804ZM138.096 38.1448L138.616 37.8445L140.825 30.1014L140.305 30.4017L138.096 38.1448ZM140.585 33.5479C140.585 33.2615 140.689 33.0813 140.873 32.975C141.049 32.8734 141.161 32.9288 141.161 33.2153L141.161 35.4328C141.161 35.7193 141.049 35.9041 140.873 36.0057C140.689 36.112 140.585 36.0519 140.585 35.7655L140.585 33.5479ZM140.025 36.0427C140.025 36.7079 140.321 36.9066 140.873 36.5878C141.425 36.269 141.721 35.7285 141.721 35.0632L141.721 32.938C141.721 32.2728 141.425 32.0741 140.873 32.3929C140.321 32.7117 140.025 33.2522 140.025 33.9175L140.025 36.0427Z" fill="#8A98B4"/>
<path d="M65.5554 53.7268L65.5553 54.2627C65.5552 55.2976 66.0033 55.6302 66.8675 55.1313C67.7318 54.6323 68.1799 53.7823 68.18 52.7474L68.1801 51.306C68.1802 50.3543 67.8521 50.017 67.204 50.3912C66.8519 50.5945 66.5958 50.9086 66.4357 51.306L66.5079 49.7213L68.0363 48.8389L68.0363 47.915L65.7157 49.2547L65.5554 53.0985L66.3876 52.618L66.3876 52.424C66.3877 51.962 66.5637 51.6848 66.8438 51.5231C67.1239 51.3614 67.2999 51.4353 67.2999 51.8973L67.2998 53.3203C67.2997 53.7823 67.1237 54.0502 66.8436 54.2119C66.5635 54.3736 66.3875 54.3089 66.3875 53.8469L66.3876 53.2463L65.5554 53.7268ZM70.5127 48.0745C70.5126 49.9409 68.7681 51.2622 68.768 53.1656L68.7679 53.9602L71.3126 52.4912L71.3126 51.5672L69.6482 52.5281C69.6402 52.4865 69.6402 52.4403 69.6402 52.3941C69.6403 51.3315 71.3928 49.5621 71.393 47.5293C71.393 46.4945 70.945 46.1618 70.0807 46.6608C69.2165 47.1597 68.7684 48.0098 68.7683 49.0446L68.7682 49.6729L69.6004 49.1925L69.6005 48.4995C69.6005 48.0375 69.7766 47.7603 70.0567 47.5986C70.3367 47.4369 70.5128 47.4924 70.5127 48.0745ZM72.4532 46.3075C72.4532 46.021 72.5572 45.8409 72.7413 45.7346C72.9173 45.633 73.0293 45.6884 73.0293 45.9748L73.0291 48.1924C73.0291 48.4789 72.9171 48.6636 72.741 48.7653C72.557 48.8715 72.453 48.8115 72.453 48.525L72.4532 46.3075ZM71.8928 48.8022C71.8928 49.4675 72.1888 49.6662 72.741 49.3474C73.2931 49.0286 73.5892 48.4881 73.5893 47.8228L73.5894 45.6977C73.5895 45.0324 73.2934 44.8337 72.7413 45.1525C72.1892 45.4713 71.8931 46.0118 71.893 46.677L71.8928 48.8022ZM72.7408 51.6666L73.2609 51.3663L75.47 43.6234L74.9499 43.9236L72.7408 51.6666ZM75.2297 47.0698C75.2297 46.7834 75.3338 46.6032 75.5178 46.497C75.6938 46.3953 75.8059 46.4508 75.8058 46.7372L75.8057 48.9548C75.8057 49.2412 75.6936 49.426 75.5176 49.5276C75.3335 49.6339 75.2295 49.5738 75.2295 49.2874L75.2297 47.0698ZM74.6694 49.5646C74.6693 50.2298 74.9654 50.4285 75.5175 50.1097C76.0697 49.791 76.3658 49.2505 76.3658 48.5852L76.366 46.46C76.366 45.7947 76.07 45.5961 75.5178 45.9148C74.9657 46.2336 74.6696 46.7741 74.6695 47.4394L74.6694 49.5646Z" fill="#8A98B4"/>
<path d="M100.094 19.7163C100.094 20.7511 100.566 21.0699 101.43 20.571C102.294 20.072 102.767 19.2081 102.767 18.1732L102.767 16.9905C102.767 16.0388 102.439 15.7015 101.791 16.0758C101.399 16.3021 101.126 16.6625 100.974 17.1199L100.974 15.9372C100.975 15.3181 101.151 15.0409 101.463 14.8607C101.743 14.699 101.919 14.7729 101.919 15.2349L101.919 15.4659L102.751 14.9854L102.751 14.8191C102.751 13.7843 102.303 13.4516 101.439 13.9506C100.526 14.4773 100.094 15.3181 100.094 16.4084L100.094 19.7163ZM101.43 17.2076C101.711 17.0459 101.887 17.1199 101.887 17.5819L101.886 18.7461C101.886 19.2081 101.71 19.476 101.43 19.6377C101.15 19.7994 100.974 19.7347 100.974 19.2727L100.974 18.1085C100.974 17.6465 101.15 17.3693 101.43 17.2076ZM103.115 18.3511L104.811 17.3717L104.811 18.5452L105.675 18.0462L105.675 16.8728L106.091 16.6325L106.091 15.7085L105.675 15.9488L105.676 11.5783L104.715 12.1327L103.115 17.4272L103.115 18.3511ZM103.923 16.9605L104.811 14.0176L104.811 16.4477L103.923 16.9605ZM107.008 11.7516C107.008 11.4652 107.112 11.285 107.296 11.1788C107.472 11.0771 107.584 11.1326 107.584 11.419L107.584 13.6366C107.584 13.923 107.472 14.1078 107.296 14.2094C107.112 14.3157 107.008 14.2556 107.008 13.9692L107.008 11.7516ZM106.447 14.2464C106.447 14.9117 106.743 15.1103 107.296 14.7916C107.848 14.4728 108.144 13.9323 108.144 13.267L108.144 11.1418C108.144 10.4765 107.848 10.2779 107.296 10.5967C106.744 10.9154 106.448 11.456 106.448 12.1212L106.447 14.2464ZM107.295 17.1108L107.816 16.8105L110.025 9.06746L109.504 9.36775L107.295 17.1108ZM109.784 12.5139C109.784 12.2275 109.888 12.0473 110.072 11.9411C110.248 11.8394 110.36 11.8949 110.36 12.1813L110.36 14.3989C110.36 14.6853 110.248 14.8701 110.072 14.9717C109.888 15.078 109.784 15.0179 109.784 14.7315L109.784 12.5139ZM109.224 15.0087C109.224 15.674 109.52 15.8726 110.072 15.5539C110.624 15.2351 110.92 14.6945 110.92 14.0293L110.921 11.9041C110.921 11.2388 110.625 11.0402 110.072 11.3589C109.52 11.6777 109.224 12.2183 109.224 12.8835L109.224 15.0087Z" fill="#8A98B4"/>
<path d="M42.6796 111.508C42.6076 111.494 42.542 111.457 42.4922 111.403C42.4424 111.348 42.411 111.28 42.4023 111.207V98.6707C42.4174 98.5906 42.46 98.5183 42.5227 98.4662C42.5854 98.4142 42.6644 98.3857 42.7459 98.3857C42.8274 98.3857 42.9063 98.4142 42.9691 98.4662C43.0318 98.5183 43.0744 98.5906 43.0894 98.6707V111.207C43.0836 111.254 43.0682 111.3 43.0442 111.341C43.0201 111.382 42.9879 111.418 42.9495 111.446C42.9112 111.474 42.8674 111.494 42.821 111.505C42.7746 111.516 42.7265 111.517 42.6796 111.508Z" fill="#B6C6E2"/>
<path d="M44.2633 110.653C44.2633 109.652 43.5642 109.242 42.6842 109.749C42.2279 110.048 41.8482 110.451 41.576 110.924C41.3038 111.397 41.1467 111.928 41.1172 112.473C41.1172 113.485 41.8163 113.883 42.6842 113.389C43.1451 113.09 43.5286 112.686 43.8031 112.211C44.0776 111.735 44.2353 111.201 44.2633 110.653Z" fill="#B6C6E2"/>
<path d="M71.482 68.1735C71.3914 68.1704 71.3056 68.1322 71.2426 68.067C71.1796 68.0018 71.1445 67.9146 71.1445 67.824V55.3358C71.1445 55.2463 71.1801 55.1604 71.2434 55.0971C71.3067 55.0338 71.3925 54.9983 71.482 54.9983C71.5268 54.9966 71.5715 55.0042 71.6132 55.0205C71.6549 55.0369 71.6928 55.0617 71.7245 55.0934C71.7562 55.1251 71.781 55.1629 71.7973 55.2047C71.8137 55.2464 71.8213 55.291 71.8196 55.3358V67.8119C71.8229 67.8582 71.8166 67.9047 71.8012 67.9485C71.7857 67.9923 71.7613 68.0324 71.7297 68.0663C71.698 68.1003 71.6596 68.1273 71.617 68.1458C71.5744 68.1642 71.5285 68.1737 71.482 68.1735Z" fill="#B6C6E2"/>
<path d="M73.0641 67.3186C73.0641 66.3181 72.3529 65.9083 71.485 66.4145C71.0286 66.7141 70.649 67.1167 70.3768 67.5899C70.1046 68.0631 69.9474 68.5937 69.918 69.1388C69.918 70.1513 70.6171 70.5491 71.485 70.0549C71.9445 69.7548 72.327 69.3507 72.6013 68.8753C72.8756 68.3999 73.0342 67.8666 73.0641 67.3186Z" fill="#B6C6E2"/>
<path d="M105.474 33.9877C105.43 33.9893 105.385 33.9818 105.343 33.9654C105.302 33.949 105.264 33.9242 105.232 33.8926C105.2 33.8609 105.176 33.823 105.159 33.7813C105.143 33.7396 105.135 33.6949 105.137 33.6501V21.162C105.135 21.1172 105.143 21.0725 105.159 21.0308C105.176 20.9891 105.2 20.9512 105.232 20.9195C105.264 20.8879 105.302 20.8631 105.343 20.8467C105.385 20.8303 105.43 20.8228 105.474 20.8245C105.519 20.8245 105.563 20.8332 105.604 20.8501C105.645 20.8671 105.682 20.892 105.713 20.9233C105.744 20.9546 105.769 20.9919 105.786 21.0328C105.803 21.0738 105.812 21.1176 105.812 21.162V33.6501C105.812 33.7397 105.776 33.8255 105.713 33.8888C105.65 33.9521 105.564 33.9877 105.474 33.9877Z" fill="#B6C6E2"/>
<path d="M107.041 33.1428C107.041 32.1423 106.342 31.7325 105.474 32.2388C105.013 32.5356 104.629 32.9371 104.352 33.4104C104.076 33.8838 103.915 34.4157 103.883 34.963C103.883 35.9635 104.594 36.3733 105.462 35.8791C105.922 35.5797 106.305 35.1758 106.579 34.7003C106.854 34.2247 107.012 33.6911 107.041 33.1428Z" fill="#B6C6E2"/>
<path d="M136.439 54.7087C136.348 54.7056 136.263 54.6674 136.2 54.6021C136.137 54.5369 136.102 54.4498 136.102 54.3591V41.871C136.102 41.7814 136.137 41.6956 136.2 41.6323C136.264 41.569 136.35 41.5334 136.439 41.5334C136.484 41.5317 136.529 41.5393 136.57 41.5557C136.612 41.572 136.65 41.5968 136.682 41.6285C136.713 41.6602 136.738 41.6981 136.754 41.7398C136.771 41.7815 136.778 41.8262 136.777 41.871V54.3591C136.778 54.4045 136.771 54.4496 136.754 54.492C136.738 54.5343 136.714 54.573 136.682 54.6056C136.651 54.6382 136.613 54.6642 136.571 54.6819C136.529 54.6996 136.484 54.7087 136.439 54.7087Z" fill="#B6C6E2"/>
<path d="M137.971 53.8528C137.971 52.8523 137.26 52.4424 136.392 52.9487C135.934 53.2476 135.552 53.6498 135.278 54.123C135.004 54.5961 134.844 55.127 134.812 55.673C134.813 56.6855 135.524 57.0833 136.392 56.5891C136.851 56.289 137.234 55.8849 137.508 55.4095C137.782 54.9341 137.941 54.4008 137.971 53.8528Z" fill="#B6C6E2"/>
<defs>
<linearGradient id="paint0_linear" x1="67.6955" y1="96.3376" x2="67.6955" y2="2" gradientUnits="userSpaceOnUse">
<stop stop-color="white"/>
<stop offset="1" stop-color="#8093EB"/>
</linearGradient>
<linearGradient id="paint1_linear" x1="120.806" y1="93.1535" x2="141.829" y2="55.0951" gradientUnits="userSpaceOnUse">
<stop stop-color="#CBD3FF"/>
<stop offset="1" stop-color="white"/>
</linearGradient>
<linearGradient id="paint2_linear" x1="89.6086" y1="107.536" x2="139.453" y2="62.557" gradientUnits="userSpaceOnUse">
<stop stop-color="#CBD3FF"/>
<stop offset="1" stop-color="white"/>
</linearGradient>
<linearGradient id="paint3_linear" x1="57.5405" y1="127.727" x2="95.7936" y2="83.2693" gradientUnits="userSpaceOnUse">
<stop stop-color="#CBD3FF"/>
<stop offset="1" stop-color="white"/>
</linearGradient>
<linearGradient id="paint4_linear" x1="26.2866" y1="147.994" x2="44.8414" y2="111.605" gradientUnits="userSpaceOnUse">
<stop stop-color="#CBD3FF"/>
<stop offset="1" stop-color="white"/>
</linearGradient>
</defs>
</svg>
