<svg width="136" height="156" viewBox="0 0 136 156" fill="none" xmlns="http://www.w3.org/2000/svg">
<path d="M119.645 16.1147C119.612 9.07849 114.629 6.20767 108.519 9.70526L25.3234 57.3285C21.1416 59.7223 17.7723 65.5621 17.7946 70.3777L18.1251 141.553C18.1475 146.377 21.564 148.345 25.7528 145.947L112.428 96.3321C116.61 93.9384 119.979 88.0985 119.957 83.2829L119.645 16.1147Z" fill="#E6E9FF"/>
<rect width="113.149" height="88.6302" rx="8.72683" transform="matrix(-0.868382 0.495896 0.00464284 0.999989 119.547 6.96582)" fill="url(#paint0_linear)"/>
<path d="M26.9875 136.4L26.415 136.731L26.3139 139.642L26.6731 139.435L26.7446 137.376L26.98 139.258L27.3692 139.033L27.7261 136.781L27.6536 138.869L28.0427 138.644L28.1438 135.733L27.5713 136.063L27.2189 138.293L26.9875 136.4ZM29.3563 135.033L28.7538 135.381L28.2336 138.534L28.6116 138.316L28.701 137.747L29.2062 137.455L29.259 137.942L29.6743 137.702L29.3563 135.033ZM29.0166 135.734L29.1638 137.092L28.7671 137.321L29.0166 135.734ZM30.5733 134.33L29.9671 134.68L29.866 137.592L30.2776 137.354L30.3156 136.26L30.5102 136.148C30.9218 135.91 31.1327 135.54 31.1489 135.074L31.162 134.695C31.1782 134.23 30.9849 134.093 30.5733 134.33ZM30.5589 134.746C30.6898 134.67 30.7586 134.696 30.7514 134.904L30.7363 135.341C30.729 135.549 30.6556 135.656 30.5247 135.732L30.3301 135.844L30.3643 134.858L30.5589 134.746Z" fill="#8A98B4"/>
<path d="M40.5534 128.077L39.9509 128.425L39.4307 131.578L39.8087 131.36L39.8981 130.791L40.4033 130.499L40.456 130.986L40.8714 130.747L40.5534 128.077ZM40.2137 128.779L40.3609 130.137L39.9642 130.366L40.2137 128.779ZM41.5614 127.903L42.0291 127.633L41.9425 130.128L42.3616 129.886L42.4627 126.975L41.1642 127.725L41.0631 130.636L41.4747 130.398L41.5614 127.903ZM43.3674 126.453L42.7611 126.803L42.6601 129.714L43.0717 129.476L43.1097 128.383L43.3042 128.27C43.7159 128.033 43.9267 127.662 43.9429 127.196L43.9561 126.818C43.9722 126.352 43.779 126.215 43.3674 126.453ZM43.3529 126.869C43.4839 126.793 43.5527 126.818 43.5454 127.026L43.5303 127.463C43.5231 127.671 43.4497 127.779 43.3187 127.854L43.1241 127.967L43.1583 126.981L43.3529 126.869Z" fill="#8A98B4"/>
<path d="M55.3312 119.208L54.7587 119.538L54.6576 122.45L55.0168 122.242L55.0883 120.184L55.3237 122.065L55.7128 121.84L56.0697 119.588L55.9972 121.676L56.3864 121.452L56.4875 118.54L55.915 118.871L55.5625 121.1L55.3312 119.208ZM57.7 117.84L57.0975 118.188L56.5773 121.341L56.9553 121.123L57.0447 120.554L57.5499 120.262L57.6026 120.749L58.018 120.51L57.7 117.84ZM57.3603 118.542L57.5075 119.9L57.1108 120.129L57.3603 118.542ZM58.6325 120.155L58.2097 120.399L58.3108 117.488L58.6775 117.276L58.6135 119.118L58.7855 118.391L59.164 116.995L59.6168 116.734L59.5157 119.645L59.1452 119.859L59.2164 117.808L59.0232 118.621L58.6325 120.155ZM59.179 116.35C59.1624 116.511 59.0975 116.585 58.9853 116.65C58.8767 116.712 58.8219 116.707 58.816 116.56L58.5616 116.707C58.5592 116.985 58.6877 117.086 58.9759 116.92C59.2678 116.752 59.4199 116.489 59.4297 116.206L59.179 116.35Z" fill="#8A98B4"/>
<path d="M70.338 112.752L70.5312 111.939L70.4601 113.99L70.8305 113.776L70.9316 110.864L70.4788 111.126L70.1003 112.522L69.9284 113.249L69.9923 111.407L69.6256 111.618L69.5245 114.53L69.9474 114.286L70.338 112.752ZM71.8642 112.494C71.848 112.96 72.0596 113.099 72.4637 112.865C72.8679 112.632 73.0979 112.238 73.1141 111.773L73.1666 110.259C73.1828 109.793 72.9713 109.654 72.5671 109.888C72.163 110.121 71.933 110.514 71.9168 110.98L71.8977 111.529L71.5909 111.706L71.6342 110.459L71.2226 110.696L71.1215 113.608L71.5331 113.37L71.5764 112.122L71.8833 111.945L71.8642 112.494ZM72.3294 110.714C72.3366 110.506 72.4217 110.379 72.5527 110.303C72.6837 110.228 72.7632 110.259 72.756 110.467L72.7014 112.039C72.6942 112.247 72.6091 112.374 72.4782 112.45C72.3472 112.525 72.2676 112.494 72.2748 112.286L72.3294 110.714ZM73.8166 110.829L74.2843 110.559L74.241 111.807L74.6601 111.565L74.7612 108.653L74.3421 108.895L74.2987 110.143L73.831 110.413L73.8743 109.165L73.4627 109.403L73.3616 112.314L73.7732 112.077L73.8166 110.829Z" fill="#8A98B4"/>
<path d="M84.2824 104.777L84.4757 103.965L84.4045 106.015L84.7749 105.801L84.876 102.89L84.4232 103.151L84.0447 104.548L83.8728 105.274L83.9368 103.432L83.5701 103.644L83.469 106.555L83.8918 106.311L84.2824 104.777ZM85.8087 104.52C85.7925 104.985 86.004 105.124 86.4082 104.891C86.8123 104.657 87.0423 104.264 87.0585 103.798L87.1111 102.284C87.1272 101.818 86.9157 101.679 86.5116 101.913C86.1074 102.146 85.8774 102.54 85.8612 103.006L85.8422 103.555L85.5353 103.732L85.5786 102.484L85.167 102.722L85.0659 105.633L85.4775 105.395L85.5209 104.148L85.8277 103.971L85.8087 104.52ZM86.2739 102.739C86.2811 102.531 86.3661 102.404 86.4971 102.329C86.6281 102.253 86.7077 102.285 86.7004 102.493L86.6459 104.065C86.6386 104.273 86.5536 104.399 86.4226 104.475C86.2916 104.55 86.212 104.519 86.2193 104.311L86.2739 102.739ZM87.1899 104.411L87.2535 104.374C87.6651 104.137 87.8445 103.829 87.8779 103.288L87.9839 101.503L88.3432 101.296L88.2565 103.791L88.6756 103.549L88.7767 100.638L87.6129 101.31L87.4692 103.549C87.4523 103.823 87.3914 103.887 87.2043 103.995L87.1899 104.411Z" fill="#8A98B4"/>
<path d="M99.602 94.0434L98.9995 94.3913L98.4793 97.5446L98.8572 97.3264L98.9467 96.7572L99.4519 96.4655L99.5046 96.9527L99.92 96.7128L99.602 94.0434ZM99.2622 94.745L99.4094 96.1028L99.0128 96.3318L99.2622 94.745ZM100.834 93.3321L100.213 93.6908L100.112 96.6022L100.759 96.2284C101.171 95.9908 101.392 95.6264 101.408 95.1772L101.416 94.9401C101.427 94.6323 101.348 94.4616 101.131 94.4934C101.318 94.2919 101.407 94.053 101.417 93.7536L101.421 93.6496C101.436 93.2004 101.261 93.0858 100.834 93.3321ZM100.752 94.9485C100.939 94.8405 101.015 94.8783 101.006 95.1487L100.997 95.4024C100.989 95.6186 100.912 95.7326 100.773 95.8125L100.538 95.9486L100.569 95.0544L100.752 94.9485ZM100.808 93.7545C100.954 93.6703 101.015 93.725 101.007 93.933L101.002 94.0952C100.994 94.3281 100.898 94.457 100.744 94.5456L100.583 94.6385L100.61 93.869L100.808 93.7545ZM102.047 95.4847L102.134 92.9892L102.807 92.6003L102.822 92.1844L101.737 92.8109L101.636 95.7223L102.047 95.4847Z" fill="#8A98B4"/>
<path d="M113.438 87.9331L113.424 88.349C113.416 88.5569 113.332 88.6793 113.201 88.755C113.07 88.8306 112.99 88.8032 112.997 88.5953L113.052 87.0231C113.059 86.8152 113.144 86.6886 113.275 86.613C113.406 86.5374 113.485 86.5689 113.478 86.7768L113.467 87.0888L113.857 86.8641L113.866 86.5813C113.883 86.1154 113.682 85.9702 113.278 86.2036C112.874 86.4369 112.655 86.8241 112.639 87.2899L112.586 88.8038C112.57 89.2696 112.771 89.4148 113.175 89.1815C113.579 88.9482 113.798 88.561 113.814 88.0952L113.827 87.7084L113.438 87.9331ZM114.538 85.9166L115.249 85.5061L115.263 85.0902L114.14 85.7383L114.039 88.6497L115.162 88.0016L115.176 87.5857L114.465 87.9962L114.495 87.1435L115.06 86.8173L115.075 86.4014L114.509 86.7276L114.538 85.9166ZM115.872 86.3689L116.34 86.0989L116.296 87.3466L116.716 87.1046L116.817 84.1932L116.398 84.4352L116.354 85.6829L115.886 85.953L115.93 84.7053L115.518 84.9429L115.417 87.8543L115.829 87.6167L115.872 86.3689Z" fill="#8A98B4"/>
<path d="M95.2697 79.4832C107.484 72.5083 107.473 70.1213 119.796 63.0842L119.851 75.019L95.314 89.031L70.777 103.043L46.131 117.117L21.5941 131.129L21.4912 108.965C33.8142 101.928 33.8569 111.134 46.0709 104.16C58.3939 97.1224 58.3218 81.6071 70.6448 74.5699C82.8588 67.5951 82.9467 86.5203 95.2697 79.4832Z" fill="url(#paint1_linear)"/>
<path d="M95.1503 53.3973C107.364 46.4224 107.465 68.0756 119.788 61.0385L119.797 63.0844C107.474 70.1216 107.485 72.5085 95.2714 79.4834C82.9484 86.5206 82.8606 67.5953 70.6466 74.5702C58.3236 81.6073 58.3956 97.1226 46.0726 104.16C33.8587 111.135 33.8159 101.928 21.4929 108.965L21.3386 75.7179C33.6616 68.6807 34.8444 95.0154 47.0583 88.0405C59.3813 81.0033 58.189 52.6227 70.512 45.5856C82.726 38.6107 82.8273 60.4344 95.1503 53.3973Z" fill="#DFE5FF"/>
<path d="M56.85 110.889L56.5866 54.1631" stroke="#E4E4E4" stroke-opacity="0.2" stroke-width="0.436341" stroke-linecap="square"/>
<path d="M41.975 119.384L41.7116 62.6573" stroke="#E4E4E4" stroke-opacity="0.2" stroke-width="0.436341" stroke-linecap="square"/>
<path d="M27.0688 127.897L26.8054 71.171" stroke="#E4E4E4" stroke-opacity="0.2" stroke-width="0.436341" stroke-linecap="square"/>
<path d="M71.2328 102.675L70.9695 45.9483" stroke="#E4E4E4" stroke-opacity="0.2" stroke-width="0.436341" stroke-linecap="square"/>
<path d="M85.6156 94.4607L85.3523 37.7344" stroke="#E4E4E4" stroke-opacity="0.2" stroke-width="0.436341" stroke-linecap="square"/>
<path d="M99.9985 86.2469L99.7351 29.5206" stroke="#E4E4E4" stroke-opacity="0.2" stroke-width="0.436341" stroke-linecap="square"/>
<path d="M114.385 78.032L114.122 21.3057" stroke="#E4E4E4" stroke-opacity="0.2" stroke-width="0.436341" stroke-linecap="square"/>
<g filter="url(#filter0_dd)">
<rect width="4.87413" height="4.96713" rx="2.43706" transform="matrix(-0.868382 0.495896 0.00464288 0.999989 101.969 48.2021)" fill="url(#paint2_linear)"/>
<rect x="-0.376885" y="0.652717" width="4.00144" height="4.09444" rx="2.00072" transform="matrix(-0.868382 0.495896 0.00464288 0.999989 101.262 48.3891)" stroke="white" stroke-width="0.872683"/>
</g>
<g filter="url(#filter1_dd)">
<rect width="4.87413" height="4.96713" rx="2.43706" transform="matrix(-0.868382 0.495896 0.00464289 0.999989 58.8828 89.0322)" fill="url(#paint3_linear)"/>
<rect x="-0.376885" y="0.652717" width="4.00145" height="4.09445" rx="2.00072" transform="matrix(-0.868382 0.495896 0.00464289 0.999989 58.1756 89.2191)" stroke="white" stroke-width="0.872683"/>
</g>
<defs>
<filter id="filter0_dd" x="96.0007" y="48.2543" width="7.72383" height="9.02541" filterUnits="userSpaceOnUse" color-interpolation-filters="sRGB">
<feFlood flood-opacity="0" result="BackgroundImageFix"/>
<feColorMatrix in="SourceAlpha" type="matrix" values="0 0 0 0 0 0 0 0 0 0 0 0 0 0 0 0 0 0 127 0"/>
<feOffset dy="0.872683"/>
<feGaussianBlur stdDeviation="0.872683"/>
<feColorMatrix type="matrix" values="0 0 0 0 0.196487 0 0 0 0 0.196487 0 0 0 0 0.279476 0 0 0 0.06 0"/>
<feBlend mode="multiply" in2="BackgroundImageFix" result="effect1_dropShadow"/>
<feColorMatrix in="SourceAlpha" type="matrix" values="0 0 0 0 0 0 0 0 0 0 0 0 0 0 0 0 0 0 127 0"/>
<feOffset dy="0.872683"/>
<feGaussianBlur stdDeviation="0.436341"/>
<feColorMatrix type="matrix" values="0 0 0 0 0.196487 0 0 0 0 0.196487 0 0 0 0 0.279476 0 0 0 0.06 0"/>
<feBlend mode="multiply" in2="effect1_dropShadow" result="effect2_dropShadow"/>
<feBlend mode="normal" in="SourceGraphic" in2="effect2_dropShadow" result="shape"/>
</filter>
<filter id="filter1_dd" x="52.9148" y="89.0843" width="7.72383" height="9.02542" filterUnits="userSpaceOnUse" color-interpolation-filters="sRGB">
<feFlood flood-opacity="0" result="BackgroundImageFix"/>
<feColorMatrix in="SourceAlpha" type="matrix" values="0 0 0 0 0 0 0 0 0 0 0 0 0 0 0 0 0 0 127 0"/>
<feOffset dy="0.872683"/>
<feGaussianBlur stdDeviation="0.872683"/>
<feColorMatrix type="matrix" values="0 0 0 0 0.196487 0 0 0 0 0.196487 0 0 0 0 0.279476 0 0 0 0.06 0"/>
<feBlend mode="multiply" in2="BackgroundImageFix" result="effect1_dropShadow"/>
<feColorMatrix in="SourceAlpha" type="matrix" values="0 0 0 0 0 0 0 0 0 0 0 0 0 0 0 0 0 0 127 0"/>
<feOffset dy="0.872683"/>
<feGaussianBlur stdDeviation="0.436341"/>
<feColorMatrix type="matrix" values="0 0 0 0 0.196487 0 0 0 0 0.196487 0 0 0 0 0.279476 0 0 0 0.06 0"/>
<feBlend mode="multiply" in2="effect1_dropShadow" result="effect2_dropShadow"/>
<feBlend mode="normal" in="SourceGraphic" in2="effect2_dropShadow" result="shape"/>
</filter>
<linearGradient id="paint0_linear" x1="56.5747" y1="0" x2="56.5747" y2="88.6302" gradientUnits="userSpaceOnUse">
<stop stop-color="#F8F9FF"/>
<stop offset="1" stop-color="white" stop-opacity="0.64"/>
</linearGradient>
<linearGradient id="paint1_linear" x1="81.3906" y1="96.3123" x2="68.9946" y2="75.6958" gradientUnits="userSpaceOnUse">
<stop stop-color="#7A8EE9"/>
<stop offset="1" stop-color="#A7B5F2"/>
</linearGradient>
<linearGradient id="paint2_linear" x1="2.43706" y1="-2.48356" x2="-2.52917" y2="2.38969" gradientUnits="userSpaceOnUse">
<stop stop-color="#A6D6FF"/>
<stop offset="1" stop-color="#0084F4"/>
</linearGradient>
<linearGradient id="paint3_linear" x1="2.35749" y1="-2.2403" x2="-2.4466" y2="2.47385" gradientUnits="userSpaceOnUse">
<stop stop-color="#CDD2FD"/>
<stop offset="1" stop-color="#6979F8"/>
</linearGradient>
</defs>
</svg>
